<?xml version="1.0" encoding="UTF-8"?>
<svg id="Equipe_Missão" data-name="Equipe/Missão" xmlns="http://www.w3.org/2000/svg" viewBox="0 0 24 24">
  <defs>
    <style>
      .cls-1 {
        fill: #fff;
        stroke-width: 0px;
      }

      .cls-2 {
        fill: none;
        stroke: #fff;
        stroke-miterlimit: 10;
        stroke-width: .5px;
      }
    </style>
  </defs>
  <path class="cls-1" d="m16.25,4.5c1.33,0,2.41,1.08,2.41,2.41s-1.08,2.41-2.41,2.41-2.41-1.08-2.41-2.41,1.08-2.41,2.41-2.41m0-.5c-1.61,0-2.91,1.3-2.91,2.91s1.3,2.91,2.91,2.91,2.91-1.3,2.91-2.91-1.3-2.91-2.91-2.91h0Z"/>
  <path class="cls-2" d="m12.12,14.72c.76-1.98,2.4-3.75,3.9-3.75,2.55,0,5.51,5.16,3.81,7.71-1.47,2.18-6.16,2.18-7.62,0-.05-.07-.09-.14-.13-.22"/>
  <path class="cls-1" d="m8.1,4.5c1.33,0,2.41,1.08,2.41,2.41s-1.08,2.41-2.41,2.41-2.41-1.08-2.41-2.41,1.08-2.41,2.41-2.41m0-.5c-1.61,0-2.91,1.3-2.91,2.91s1.3,2.91,2.91,2.91,2.91-1.3,2.91-2.91-1.3-2.91-2.91-2.91h0Z"/>
  <path class="cls-2" d="m4.4,18.59c-1.71-2.55,1.25-7.71,3.81-7.71s5.51,5.16,3.81,7.71c-1.46,2.17-6.15,2.17-7.61,0Z"/>
</svg>