<?xml version="1.0" encoding="UTF-8"?>
<svg id="Formalize-se_Atualização_Cadastral" data-name="Formalize-se/Atualização Cadastral" xmlns="http://www.w3.org/2000/svg" viewBox="0 0 24 24">
  <defs>
    <style>
      .cls-1 {
        stroke-width: .48px;
      }

      .cls-1, .cls-2, .cls-3, .cls-4, .cls-5 {
        fill: none;
        stroke: #fff;
        stroke-miterlimit: 10;
      }

      .cls-2 {
        stroke-width: .5px;
      }

      .cls-3 {
        stroke-width: .24px;
      }

      .cls-4 {
        stroke-width: .53px;
      }

      .cls-5 {
        stroke-width: .25px;
      }
    </style>
  </defs>
  <path class="cls-3" d="m16.39,9.1H7.91c.92-1.23,2.48-2.04,4.24-2.04s3.32.81,4.24,2.04Z"/>
  <path class="cls-1" d="m12.15,6.04c-2.22,0-4.15,1.24-5.1,3.06h1.13c.86-1.23,2.32-2.04,3.97-2.04s3.11.81,3.97,2.04h1.13c-.94-1.81-2.87-3.06-5.1-3.06Z"/>
  <path class="cls-4" d="m4.09,9.1l-.03,3.37-.06,5.35h16.31v-8.72H4.09Zm5,4.08h-1.02v-2.04h1.02v2.04Zm7.13,0h-1.02v-2.04h1.02v2.04Z"/>
  <path class="cls-2" d="m16.39,9.1H7.91c.92-1.23,2.48-2.04,4.24-2.04s3.32.81,4.24,2.04Z"/>
  <line class="cls-2" x1="15.21" y1="12.47" x2="9.09" y2="12.47"/>
  <line class="cls-2" x1="20.3" y1="12.47" x2="16.22" y2="12.47"/>
  <polyline class="cls-2" points="8.07 12.47 4.06 12.47 4 12.47"/>
  <rect class="cls-5" x="8.07" y="11.14" width="1.02" height="2.04"/>
  <rect class="cls-5" x="15.21" y="11.14" width="1.02" height="2.04"/>
</svg>